<?xml version="1.0" encoding="UTF-8" ?>
<!DOCTYPE svg PUBLIC "-//W3C//DTD SVG 1.1//EN" "http://www.w3.org/Graphics/SVG/1.1/DTD/svg11.dtd">
<svg width="512pt" height="512pt" viewBox="0 0 512 512" version="1.1" xmlns="http://www.w3.org/2000/svg">
<defs>
<clipPath id="roundedCanvas">
<rect x="0" y="0" width="512" height="512" rx="92" ry="92" />
</clipPath>
</defs>
<style>
.brand-fill { fill: #0054a8; }
@media (prefers-color-scheme: dark) {
  .brand-fill { fill: #ffffff; }
}
</style>
<g clip-path="url(#roundedCanvas)">
<g id="#0054a8fd">
<path class="brand-fill" opacity="1.00" d=" M 0.00 0.00 L 512.00 0.00 L 512.00 512.00 L 0.00 512.00 L 0.00 0.00 M 126.39 74.27 C 126.37 195.68 126.35 317.10 126.40 438.51 C 161.26 438.49 196.13 438.51 230.99 438.50 C 255.03 438.30 279.34 439.67 303.04 434.74 C 323.94 430.72 344.15 421.43 359.53 406.51 C 375.31 390.90 384.03 369.08 385.70 347.14 C 386.86 330.80 385.27 314.02 379.37 298.66 C 370.20 275.76 351.70 256.40 328.38 247.81 C 336.65 243.71 344.65 238.74 351.07 232.04 C 361.97 221.16 369.09 206.69 371.24 191.46 C 374.73 167.90 371.08 142.88 358.80 122.27 C 346.83 101.74 326.08 87.28 303.57 80.42 C 287.22 75.39 269.99 74.17 252.96 74.24 C 210.77 74.27 168.58 74.23 126.39 74.27 Z" />
<path class="brand-fill" opacity="1.00" d=" M 185.87 128.63 C 210.58 128.68 235.30 128.49 260.01 128.73 C 274.66 129.14 290.68 131.80 301.54 142.52 C 319.35 159.79 319.15 191.36 302.08 209.05 C 290.45 221.72 272.86 227.47 255.97 227.49 C 232.60 227.51 209.24 227.50 185.88 227.49 C 185.87 194.54 185.88 161.59 185.87 128.63 Z" />
<path class="brand-fill" opacity="1.00" d=" M 185.88 280.01 C 209.26 279.99 232.64 280.01 256.03 279.99 C 264.19 280.01 272.42 280.05 280.44 281.76 C 296.57 284.98 311.61 294.68 320.24 308.82 C 327.06 319.98 329.71 333.65 327.31 346.53 C 324.56 360.05 314.93 372.06 302.16 377.41 C 288.88 383.02 274.23 383.98 259.99 384.12 C 235.29 384.13 210.59 384.13 185.88 384.12 C 185.87 349.41 185.88 314.71 185.88 280.01 Z" />
</g>
<g id="#ffffffff">
</g>
</g>
</svg>
